<svg xmlns="http://www.w3.org/2000/svg" width="42" height="42" viewBox="0 0 42 42"><defs><style>.a{fill:#fff;}.b{fill:#b2251a;}.c{fill:#333;}</style></defs><g transform="translate(-1388 -91)"><circle class="a" cx="21" cy="21" r="21" transform="translate(1388 91)"/><path class="b" d="M12.238-61.2c-.287-.228-.552-.451-.787-.659l1.367-3.075a11.106,11.106,0,0,1-.58,3.734m1.037-7.953-.371.816c-.081-.125-.172-.239-.263-.353-.132-.156-.264-.312-.4-.457.347,0,.693,0,1.03-.006M8.976-56.3c.082-.186.963-2.168,1.861-4.187.258.227.538.461.838.694a11.569,11.569,0,0,1-2.7,3.493M7.937-70.877A50.007,50.007,0,0,1,1.6-70.988a8.926,8.926,0,0,1,6.334.111m5.145,10.3a10.674,10.674,0,0,0,.54-6.16L14.7-69.172c1.561-.024,2.856-.06,3.56-.108,2.612-.2,4.019.018,4.016.835,0,.414,2.021-2.64-2.6-2.66-.53,0-2.4.032-4.346.072l.118-.258s.2-.618-.613-.618a.9.9,0,0,0-.811.618L13.895-71c-1.916.041-3.595.079-3.754.083A10.8,10.8,0,0,0,4.017-72.5c-1.146.052-4.01.251-4.017,1.917,0,1.117.188,1.428,2.2,1.437,1.55.007,5.039.022,8.436.006a10.733,10.733,0,0,1,.995,1.049,5.471,5.471,0,0,1,.69,1.048l-1.9,4.194c-.122-.126-.189-.2-.189-.2-.543-.647-1.036-.935-1.348-.727-.613.419-.259.907.063,1.337.043.057.346.434.854.958L7.261-55.891a1.017,1.017,0,0,0,.3.922c1,.834,3.463-1.275,4.926-4.231" transform="translate(1392.507 174)"/><g transform="translate(1400 105.059)"><path class="c" d="M16.824,10.941a7.965,7.965,0,0,1,3.735,2.941A7.638,7.638,0,0,1,22,18.353v2a.529.529,0,1,1-1.059,0v-2a6.728,6.728,0,0,0-.676-2.941A6.913,6.913,0,0,0,18.353,13a6.751,6.751,0,0,0-2.824-1.353.052.052,0,0,0-.059-.059.052.052,0,0,1-.059-.059h-.059l-.088-.088a.12.12,0,0,1-.029-.088h-.059V11a.12.12,0,0,1,.029-.088l.029-.029v-.059l.059-.059a.052.052,0,0,1,.059-.059l.059-.059a2.947,2.947,0,0,0,1.294-1.294,3.828,3.828,0,0,0,.471-1.824,3.438,3.438,0,0,0-.971-2.441,3.021,3.021,0,0,0-2.265-1.029,3.087,3.087,0,0,0-1.647.471,3.4,3.4,0,0,0-1.206,1.265,3.514,3.514,0,0,0-.441,1.735,3.652,3.652,0,0,0,.5,1.824,3.218,3.218,0,0,0,1.265,1.294.458.458,0,0,1,.294.471.508.508,0,0,1-.412.529,6.712,6.712,0,0,0-2.735,1.324,6.486,6.486,0,0,0-1.853,2.382,7.116,7.116,0,0,0-.647,3v1.471H17.647a.529.529,0,0,1,0,1.059H6.529A.468.468,0,0,1,6,20.353v-2a7.818,7.818,0,0,1,1.382-4.5,7.689,7.689,0,0,1,3.676-2.912A4.557,4.557,0,0,1,9.588,7.529a4.447,4.447,0,0,1,1.294-3.176A4.1,4.1,0,0,1,13.941,3a4,4,0,0,1,3.029,1.353,4.5,4.5,0,0,1,1.265,3.176A4.648,4.648,0,0,1,16.824,10.941Z"/></g></g></svg>