<svg xmlns="http://www.w3.org/2000/svg" width="16" height="16" viewBox="0 0 16 16"><path d="M-6168.4,21082.8a3.2,3.2,0,0,1,3.2-3.2,3.2,3.2,0,0,1,3.2,3.2,3.2,3.2,0,0,1-3.2,3.2A3.2,3.2,0,0,1-6168.4,21082.8Zm-9.6,0a3.2,3.2,0,0,1,3.2-3.2,3.2,3.2,0,0,1,3.2,3.2,3.2,3.2,0,0,1-3.2,3.2A3.2,3.2,0,0,1-6178,21082.8Zm9.6-9.6a3.2,3.2,0,0,1,3.2-3.2,3.2,3.2,0,0,1,3.2,3.2,3.2,3.2,0,0,1-3.2,3.2A3.2,3.2,0,0,1-6168.4,21073.2Zm-9.6,0a3.2,3.2,0,0,1,3.2-3.2,3.2,3.2,0,0,1,3.2,3.2,3.2,3.2,0,0,1-3.2,3.2A3.2,3.2,0,0,1-6178,21073.2Z" transform="translate(6177.999 -21070)"/></svg>