<svg xmlns="http://www.w3.org/2000/svg" width="34" height="38" viewBox="0 0 34 38"><defs><style>.a{fill:#f5f6f7;stroke:#e6eaec;}.b{fill:#a4a8ab;}.c{stroke:none;}.d{fill:none;}</style></defs><g transform="translate(-1042 -242)"><g class="a" transform="translate(1042 242)"><path class="c" d="M0,0H30a4,4,0,0,1,4,4V34a4,4,0,0,1-4,4H0a0,0,0,0,1,0,0V0A0,0,0,0,1,0,0Z"/><path class="d" d="M1,.5H30A3.5,3.5,0,0,1,33.5,4V34A3.5,3.5,0,0,1,30,37.5H1A.5.5,0,0,1,.5,37V1A.5.5,0,0,1,1,.5Z"/></g><path class="b" d="M.354-.354,3,2.293,5.647-.354l.707.707L3.707,3,6.354,5.647l-.707.707L3,3.707.354,6.354l-.707-.707L2.293,3-.354.354Z" transform="translate(1056 258.5)"/></g></svg>