<svg xmlns="http://www.w3.org/2000/svg" width="13" height="15" viewBox="0 0 13 15"><path d="M15,5.384a1.945,1.945,0,0,1,.406.636,1.914,1.914,0,0,1,.169.737V16.4a.771.771,0,0,1-.237.569.788.788,0,0,1-.576.234H3.383a.788.788,0,0,1-.576-.234.771.771,0,0,1-.237-.569V3.007a.771.771,0,0,1,.237-.569A.788.788,0,0,1,3.383,2.2h7.583a2.267,2.267,0,0,1,1.388.569ZM11.237,3.342V6.489H14.42a.912.912,0,0,0-.186-.343l-2.649-2.62a.927.927,0,0,0-.347-.184Zm3.25,12.79V7.561H10.967a.788.788,0,0,1-.576-.234.771.771,0,0,1-.237-.569V3.275h-6.5V16.132H14.487Zm-4.35-4.964a6.445,6.445,0,0,0,.711.469,8.491,8.491,0,0,1,.99-.059q1.244,0,1.5.41a.4.4,0,0,1,.017.435.024.024,0,0,1-.008.017l-.017.017v.008q-.051.318-.6.318a3.527,3.527,0,0,1-.973-.167,6.211,6.211,0,0,1-1.1-.444,15.386,15.386,0,0,0-3.318.695q-1.295,2.193-2.048,2.193A.5.5,0,0,1,5.051,15l-.2-.1L4.8,14.86a.343.343,0,0,1-.051-.3,1.814,1.814,0,0,1,.474-.766,4.088,4.088,0,0,1,1.117-.808.124.124,0,0,1,.195.05.048.048,0,0,1,.017.033q.44-.711.906-1.649a12.693,12.693,0,0,0,.88-2.193,6.7,6.7,0,0,1-.258-1.335,3.22,3.22,0,0,1,.055-1.067q.093-.335.355-.335h.186a.359.359,0,0,1,.3.126.662.662,0,0,1,.076.569.181.181,0,0,1-.034.067.216.216,0,0,1,.008.067v.251A10.843,10.843,0,0,1,8.9,9.176a4.229,4.229,0,0,0,1.236,1.992Zm-4.875,3.44a3.711,3.711,0,0,0,1.16-1.323,4.8,4.8,0,0,0-.741.7A2.78,2.78,0,0,0,5.262,14.609Zm3.369-7.7a2.462,2.462,0,0,0-.017,1.1q.008-.059.059-.368,0-.025.059-.36a.187.187,0,0,1,.034-.067A.024.024,0,0,1,8.758,7.2a.017.017,0,0,0,0-.013.017.017,0,0,1,0-.013.479.479,0,0,0-.11-.3.024.024,0,0,1-.008.017v.017Zm-1.05,5.533a12.521,12.521,0,0,1,2.4-.678,1.277,1.277,0,0,1-.11-.08,1.512,1.512,0,0,1-.135-.113A4.436,4.436,0,0,1,8.664,10.1a11.118,11.118,0,0,1-.7,1.649q-.254.469-.381.695Zm5.467-.134a2.044,2.044,0,0,0-1.185-.2,3.232,3.232,0,0,0,1.049.234.83.83,0,0,0,.152-.008q0-.008-.017-.025Z" transform="translate(-2.571 -2.204)"/></svg>