<svg xmlns="http://www.w3.org/2000/svg" width="42" height="62" viewBox="0 0 42 62"><defs><style>.a{font-size:12px;font-family:CircularStd-Book, Circular Std Book;}.b{fill:#fff;}.c{fill:#b2251a;}.d{fill:#333;}</style></defs><g transform="translate(-1486 -75)"><text class="a" transform="translate(1507 135)"><tspan x="-15.918" y="0">Portal</tspan></text><g transform="translate(98 -16)"><circle class="b" cx="21" cy="21" r="21" transform="translate(1388 91)"/><path class="c" d="M12.238-61.2c-.287-.228-.552-.451-.787-.659l1.367-3.075a11.106,11.106,0,0,1-.58,3.734m1.037-7.953-.371.816c-.081-.125-.172-.239-.263-.353-.132-.156-.264-.312-.4-.457.347,0,.693,0,1.03-.006M8.976-56.3c.082-.186.963-2.168,1.861-4.187.258.227.538.461.838.694a11.569,11.569,0,0,1-2.7,3.493M7.937-70.877A50.007,50.007,0,0,1,1.6-70.988a8.926,8.926,0,0,1,6.334.111m5.145,10.3a10.674,10.674,0,0,0,.54-6.16L14.7-69.172c1.561-.024,2.856-.06,3.56-.108,2.612-.2,4.019.018,4.016.835,0,.414,2.021-2.64-2.6-2.66-.53,0-2.4.032-4.346.072l.118-.258s.2-.618-.613-.618a.9.9,0,0,0-.811.618L13.895-71c-1.916.041-3.595.079-3.754.083A10.8,10.8,0,0,0,4.017-72.5c-1.146.052-4.01.251-4.017,1.917,0,1.117.188,1.428,2.2,1.437,1.55.007,5.039.022,8.436.006a10.733,10.733,0,0,1,.995,1.049,5.471,5.471,0,0,1,.69,1.048l-1.9,4.194c-.122-.126-.189-.2-.189-.2-.543-.647-1.036-.935-1.348-.727-.613.419-.259.907.063,1.337.043.057.346.434.854.958L7.261-55.891a1.017,1.017,0,0,0,.3.922c1,.834,3.463-1.275,4.926-4.231" transform="translate(1392.507 174)"/><g transform="translate(1403.5 105)"><path class="d" d="M3.445,20.1A.393.393,0,0,1,3,19.657V17.519a7.026,7.026,0,0,1,1.357-4.231A7.185,7.185,0,0,1,7.894,10.66a4.143,4.143,0,0,1-1.424-3.3A4.138,4.138,0,0,1,7.627,4.336,4.007,4.007,0,0,1,10.564,3a4.127,4.127,0,0,1,3,1.336,4.1,4.1,0,0,1,1.179,3.029,4.34,4.34,0,0,1-1.424,3.3q.534.178.979.356a.44.44,0,0,1,.222.668.477.477,0,0,1-.667.223,6.41,6.41,0,0,0-1.735-.623.4.4,0,0,1-.4-.356.424.424,0,0,1,.267-.49,3.226,3.226,0,0,0,1.78-3.073A3.141,3.141,0,0,0,12.878,5,3.221,3.221,0,0,0,10.564,3.98,3.174,3.174,0,0,0,8.295,5a3.141,3.141,0,0,0-.89,2.36,3.255,3.255,0,0,0,1.824,3.073.559.559,0,0,1,.267.49.488.488,0,0,1-.445.4,5.989,5.989,0,0,0-3.671,2.16,5.974,5.974,0,0,0-1.4,4.031v2.138a.4.4,0,0,1-.156.312A.561.561,0,0,1,3.445,20.1Zm13.882-.134a3.036,3.036,0,0,1-.957.134,2.631,2.631,0,0,1-.912-.134.421.421,0,0,1-.356-.445v-.534a2.441,2.441,0,0,0-.311-.134l-.267-.178-.4.267A.462.462,0,0,1,13.5,18.9a9.1,9.1,0,0,1-.534-.757,3.987,3.987,0,0,1-.356-.891.412.412,0,0,1,.222-.534l.445-.223a.765.765,0,0,1-.044-.312,1.353,1.353,0,0,1,.044-.4l-.4-.178a.424.424,0,0,1-.267-.579,3.643,3.643,0,0,1,.934-1.6.393.393,0,0,1,.623-.089l.356.267a.27.27,0,0,0,.133-.067l.089-.067a1.739,1.739,0,0,1,.356-.134l-.089-.445q-.089-.49.356-.534a3.179,3.179,0,0,1,1.824,0,.4.4,0,0,1,.4.445v.534l.267.134a2.01,2.01,0,0,1,.267.178l.267-.312a.509.509,0,0,1,.712.045,5.658,5.658,0,0,1,.979,1.737.5.5,0,0,1-.267.534l-.445.223v.579l.4.178q.4.178.311.534a3.985,3.985,0,0,1-.979,1.692.433.433,0,0,1-.623.089l-.356-.267q-.045,0-.222.178,0-.045-.311.134l.089.445A.462.462,0,0,1,17.327,19.968Zm-1.29-1.292q.223.49.578.445l-.045-.356a.434.434,0,0,1,.356-.534,2.457,2.457,0,0,0,.489-.223q.045-.045.356-.267A.46.46,0,0,1,18.4,17.7l.267.223a3.287,3.287,0,0,0,.356-.579l-.356-.089a.471.471,0,0,1-.267-.579,2.5,2.5,0,0,0,.045-.49,2.266,2.266,0,0,0-.045-.445.409.409,0,0,1,.267-.534l.356-.223a.661.661,0,0,0-.178-.312q0-.089-.178-.267l-.267.223q-.267.312-.623-.045a1.185,1.185,0,0,0-.4-.267,1.743,1.743,0,0,0-.4-.178.49.49,0,0,1-.356-.49v-.49h-.578l.044.356a.4.4,0,0,1-.356.534,3.114,3.114,0,0,0-.445.223q-.133.089-.445.312-.267.312-.578,0l-.311-.178a1.136,1.136,0,0,0-.267.534l.311.134a.374.374,0,0,1,.267.534.611.611,0,0,1-.022.134.655.655,0,0,0-.022.156v.29a2.267,2.267,0,0,0,.044.445.412.412,0,0,1-.222.534l-.4.178.133.267a1.739,1.739,0,0,0,.178.312l.311-.223a.379.379,0,0,1,.578,0q.267.223.445.356a1.744,1.744,0,0,1,.4.178A.387.387,0,0,1,16.037,18.677Zm.311-1.069a1.287,1.287,0,0,1-.712-.2,1.606,1.606,0,0,1-.512-.534,1.325,1.325,0,0,1-.2-.69,1.35,1.35,0,0,1,.423-1.024,1.451,1.451,0,0,1,2,0,1.35,1.35,0,0,1,.423,1.024,1.444,1.444,0,0,1-1.424,1.425Zm.311-1.781a.43.43,0,0,0-.623,0,.482.482,0,0,0-.133.356.445.445,0,1,0,.89,0A.482.482,0,0,0,16.66,15.827Z"/></g></g></g></svg>