<svg xmlns="http://www.w3.org/2000/svg" width="15.996" height="17.881" viewBox="0 0 15.996 17.881"><defs><style>.a{fill:#333;}</style></defs><g transform="translate(-908.002 -312.06)"><path class="a" d="M17373.943,22216.354v-2a6.714,6.714,0,0,0-.68-2.937,6.908,6.908,0,0,0-1.912-2.414,6.8,6.8,0,0,0-2.5-1.275l-.818,1.432.965,4.092a.5.5,0,0,1-.094.424.492.492,0,0,1-.391.189h-3.027a.489.489,0,0,1-.391-.189.5.5,0,0,1-.1-.424l.965-4.092-.84-1.469a6.748,6.748,0,0,0-2.566,1.283,6.482,6.482,0,0,0-1.852,2.381,7.149,7.149,0,0,0-.646,3v1.473h10.588a.529.529,0,0,1,0,1.059h-11.117a.467.467,0,0,1-.529-.529v-2a7.8,7.8,0,0,1,1.383-4.5,7.664,7.664,0,0,1,3.674-2.91,4.554,4.554,0,0,1-1.473-3.412,4.454,4.454,0,0,1,1.3-3.178,4.093,4.093,0,0,1,3.057-1.35,4.007,4.007,0,0,1,3.027,1.35,4.488,4.488,0,0,1,1.266,3.178,4.649,4.649,0,0,1-1.41,3.412,7.943,7.943,0,0,1,3.734,2.939,7.664,7.664,0,0,1,1.439,4.471v2a.527.527,0,1,1-1.055,0Zm-7.014-7.521a.492.492,0,0,1,.051.363l-.859,3.668h1.762l-.863-3.668a.511.511,0,0,1,.049-.363l.58-1.016h-1.3Zm1.316-2.018.049-.051c0-.039.018-.057.057-.057l.061-.061a2.937,2.937,0,0,0,1.295-1.293,3.841,3.841,0,0,0,.467-1.824,3.438,3.438,0,0,0-.969-2.441,3.022,3.022,0,0,0-2.264-1.031,3.087,3.087,0,0,0-1.645.473,3.379,3.379,0,0,0-1.211,1.266,3.576,3.576,0,0,0-.439,1.734,3.648,3.648,0,0,0,.5,1.824,3.2,3.2,0,0,0,1.268,1.293.427.427,0,0,1,.211.168Z" transform="translate(-16451 -21886.941)"/></g></svg>