<svg xmlns="http://www.w3.org/2000/svg" width="16" height="17.882" viewBox="0 0 16 17.882"><defs><style>.a{fill:#333;}</style></defs><g transform="translate(-6 -3)"><path class="a" d="M16.824,10.941a7.965,7.965,0,0,1,3.735,2.941A7.638,7.638,0,0,1,22,18.353v2a.529.529,0,1,1-1.059,0v-2a6.728,6.728,0,0,0-.676-2.941A6.913,6.913,0,0,0,18.353,13a6.751,6.751,0,0,0-2.824-1.353.052.052,0,0,0-.059-.059.052.052,0,0,1-.059-.059h-.059l-.088-.088a.12.12,0,0,1-.029-.088h-.059V11a.12.12,0,0,1,.029-.088l.029-.029v-.059l.059-.059a.052.052,0,0,1,.059-.059l.059-.059a2.947,2.947,0,0,0,1.294-1.294,3.828,3.828,0,0,0,.471-1.824,3.438,3.438,0,0,0-.971-2.441,3.021,3.021,0,0,0-2.265-1.029,3.087,3.087,0,0,0-1.647.471,3.4,3.4,0,0,0-1.206,1.265,3.514,3.514,0,0,0-.441,1.735,3.652,3.652,0,0,0,.5,1.824,3.218,3.218,0,0,0,1.265,1.294.458.458,0,0,1,.294.471.508.508,0,0,1-.412.529,6.712,6.712,0,0,0-2.735,1.324,6.486,6.486,0,0,0-1.853,2.382,7.116,7.116,0,0,0-.647,3v1.471H17.647a.529.529,0,0,1,0,1.059H6.529A.468.468,0,0,1,6,20.353v-2a7.818,7.818,0,0,1,1.382-4.5,7.689,7.689,0,0,1,3.676-2.912A4.557,4.557,0,0,1,9.588,7.529a4.447,4.447,0,0,1,1.294-3.176A4.1,4.1,0,0,1,13.941,3a4,4,0,0,1,3.029,1.353,4.5,4.5,0,0,1,1.265,3.176A4.648,4.648,0,0,1,16.824,10.941Z"/></g></svg>